<svg xmlns="http://www.w3.org/2000/svg" viewBox="0 0 500 500"><g id="freepik--Brain--inject-149"><path d="M211.47,294.05c-.7,2.79,2.19,56.21,46.57,68.3,0,0-3.36,16,14.06,31.36,0,0,13.46,18.52,12.85,32.28l24-5.94,5-62.58-12.55-63.42s-45.3-19.51-48.09-19.51S211.47,294.05,211.47,294.05Z" style="fill:#FF725E"></path><path d="M211.47,294.05c-.7,2.79,2.19,56.21,46.57,68.3,0,0-3.36,16,14.06,31.36,0,0,13.46,18.52,12.85,32.28l24-5.94,5-62.58-12.55-63.42s-45.3-19.51-48.09-19.51S211.47,294.05,211.47,294.05Z" style="opacity:0.30000000000000004"></path><path d="M375.16,342.17c-1.6-5.2-4.57-9.84-7.62-14.33a102.7,102.7,0,0,0-9.83-12.7c-10.48-11.17-24.95-18.12-40-21.2a59,59,0,0,0-21.27-.92c-7,1.14-13.91,4.17-18.89,9.28L271,310.43a23.18,23.18,0,0,0,11.64,25.21c-5.47,12.46-5.86,27.57,1,39.28s21.78,18.86,34.79,14.88c2.66-.82,5.22-2.05,8-2.38s5.46.25,8.19.53c15.54,1.61,31.62-7.41,38.34-21.52A33.94,33.94,0,0,0,375.16,342.17Z" style="fill:#FF725E"></path><g style="opacity:0.5"><path d="M375.16,342.17c-1.6-5.2-4.57-9.84-7.62-14.33a102.7,102.7,0,0,0-9.83-12.7c-10.48-11.17-24.95-18.12-40-21.2a59,59,0,0,0-21.27-.92c-7,1.14-13.91,4.17-18.89,9.28L271,310.43a23.18,23.18,0,0,0,11.64,25.21c-5.47,12.46-5.86,27.57,1,39.28s21.78,18.86,34.79,14.88c2.66-.82,5.22-2.05,8-2.38s5.46.25,8.19.53c15.54,1.61,31.62-7.41,38.34-21.52A33.94,33.94,0,0,0,375.16,342.17Z"></path></g><path d="M219.91,329.36s22.68-.23,35.59-8.57a216.16,216.16,0,0,0,66.12,0s23.59,29.78,53.69,35.34c2.09-3.51,1.46-13.19,1.19-22L312.09,293l-62.3,7.66-34,18.49Z" style="opacity:0.30000000000000004"></path><path d="M66.32,210.53S45.86,185.41,77.44,161c0,0,1.8-15.79,16.51-16.51,0,0,.36-21.89,35.89-31.94,0,0-.72-10,25.84-12.56S193,98.2,193,98.2a45.59,45.59,0,0,1,42.7,1.79s34.1-8.25,59.58,7.18a24.16,24.16,0,0,1,21.47,4c10.47,7.89,24.1,18.66,24.1,18.66s29.07,3.44,33,22.36c0,0,39.12,17.47,39.12,58.39v3.23s24.4,40.19,14,72.85c0,0-3.23,16.15-11.13,21.17,0,0-11.12,45.22-29.43,42.35,0,0-4.66,1.44-9.33-5.38l-6.46-4.31s-12.2.36-14.35-6.46c0,0-24.41-7.89-32.3-25.84,0,0-5.39,7.54-32.66,5s-38-5.74-38-5.74-26.56,15.79-45.22,20.09-35.53,2.16-42.71-9.33-12.2-12.56-14.71-23.33-4.31-17.22-4.31-17.22-37.45-5.85-57.78-19.74C67,243.19,58.78,226.68,66.32,210.53Z" style="fill:#FF725E"></path><path d="M165.71,119.71a8,8,0,0,1-.63.54,16.74,16.74,0,0,1-2.05,1.29c-.92.52-2.1,1.09-3.48,1.78a22.49,22.49,0,0,0-4.5,2.7l-.06,0-.07,0a44.27,44.27,0,0,0-7.46-1.89,13.66,13.66,0,0,0-8.91,1.5,8.73,8.73,0,0,0-3.38,3.7,11.9,11.9,0,0,0-1.07,5.27,14.82,14.82,0,0,0,1.19,5.57c.76,1.81,1.85,3.53,2.81,5.38l.1.21-.22.13a6.9,6.9,0,0,0-1.87,1.8,7.13,7.13,0,0,0-1.31,2.4l-.07.28-.26-.1a41.49,41.49,0,0,0-18.06-2.46A42.3,42.3,0,0,0,101.33,152a40.54,40.54,0,0,0-11.59,8.75,43.11,43.11,0,0,0-7.32,10.85,42.59,42.59,0,0,0-3.34,10.77l0,.12-.12,0a7.62,7.62,0,0,0-3.94,2.2,11.76,11.76,0,0,0-2.28,3.39,22.51,22.51,0,0,0-1.59,6.39c-.23,1.8-.38,3.21-.53,4.15-.07.48-.14.83-.19,1.07a1.35,1.35,0,0,1-.08.36,1.64,1.64,0,0,1,0-.36l.14-1.08c.1-1,.25-2.37.43-4.16A22.54,22.54,0,0,1,72.46,188a12,12,0,0,1,2.31-3.5,7.94,7.94,0,0,1,4.1-2.33l-.14.15A41.65,41.65,0,0,1,82,171.45a42.85,42.85,0,0,1,7.35-11,40.78,40.78,0,0,1,11.71-8.89,42.69,42.69,0,0,1,15.27-4.25,41.73,41.73,0,0,1,18.28,2.51l-.34.18a9,9,0,0,1,3.46-4.54l-.11.34c-.94-1.83-2-3.56-2.81-5.42a15.36,15.36,0,0,1-1.21-5.75,12.29,12.29,0,0,1,1.14-5.47,9.09,9.09,0,0,1,3.56-3.87,14,14,0,0,1,9.17-1.49,44,44,0,0,1,7.49,2l-.13,0a22.31,22.31,0,0,1,4.58-2.69c1.39-.66,2.58-1.22,3.51-1.71a20.41,20.41,0,0,0,2.08-1.22C165.48,119.87,165.7,119.7,165.71,119.71Z" style="fill:#263238"></path><path d="M198,110.29a4,4,0,0,1-.37.26l-1.12.72c-.5.31-1,.79-1.72,1.31-.33.26-.64.6-1,.93l-.55.52-.53.61a23.23,23.23,0,0,0-4.15,6.86,31.4,31.4,0,0,0-1.43,4.82c-.19.87-.33,1.78-.46,2.71a10.48,10.48,0,0,0-.14,2.85,10.31,10.31,0,0,0,2.84,5.32c1.44,1.59,3.28,2.94,5,4.59a14.44,14.44,0,0,1,2.29,2.78,10.37,10.37,0,0,1,1.36,3.49,18.84,18.84,0,0,1-.38,7.71,51.06,51.06,0,0,1-2.41,7.74,16.37,16.37,0,0,1-4.94,6.86,17.05,17.05,0,0,1-8.23,3c-3,.38-6,.36-9,.5a95,95,0,0,0-17.5,2.2,47.12,47.12,0,0,0-15.08,6.25C136,185.2,132.7,189,129,191.92a26,26,0,0,1-11.7,5.59,28,28,0,0,1-10.73,0A27,27,0,0,1,99,194.77a25.65,25.65,0,0,1-4.23-2.89l-1-.9-.33-.32s.13.09.36.28l1,.86a26.3,26.3,0,0,0,4.26,2.79,27,27,0,0,0,7.6,2.61,27.6,27.6,0,0,0,10.6-.06,25.56,25.56,0,0,0,11.5-5.55c3.62-2.91,7-6.73,11.39-9.66a47.53,47.53,0,0,1,15.23-6.35,95.5,95.5,0,0,1,17.6-2.22c3-.14,6-.12,9-.5a16.52,16.52,0,0,0,8-2.89,16,16,0,0,0,4.79-6.65,50.75,50.75,0,0,0,2.4-7.65,18.35,18.35,0,0,0,.4-7.52,9.88,9.88,0,0,0-1.29-3.34A13.85,13.85,0,0,0,194,142.1c-1.65-1.64-3.48-3-4.95-4.63a8.75,8.75,0,0,1-2.76-8.48c.14-.94.29-1.86.49-2.74a30.36,30.36,0,0,1,1.48-4.85,23.17,23.17,0,0,1,4.26-6.89l.55-.61.56-.52c.37-.33.69-.66,1-.92.69-.51,1.24-1,1.75-1.28l1.15-.68A4.28,4.28,0,0,1,198,110.29Z" style="fill:#263238"></path><path d="M235.79,110.31l-.33-.24c-.22-.15-.52-.41-1-.7a24.88,24.88,0,0,0-3.88-2.32,37.35,37.35,0,0,0-16.17-3.44c-7.05-.12-15.38,1.22-24.65,2.24s-19.48,2.25-30.16,3.58-20.81,3.2-29.63,6.23a72.17,72.17,0,0,0-21.77,11.48,57,57,0,0,0-7,6.45,50.12,50.12,0,0,0-4.4,5.66,45.16,45.16,0,0,0-2.33,3.89c-.24.44-.42.79-.56,1a2.05,2.05,0,0,1-.21.35,2.74,2.74,0,0,1,.16-.37l.52-1.06a36.86,36.86,0,0,1,2.25-4,48.29,48.29,0,0,1,4.35-5.74,56.33,56.33,0,0,1,6.94-6.55,71.65,71.65,0,0,1,21.85-11.65c8.85-3.06,19-4.91,29.71-6.28s20.9-2.46,30.17-3.54,17.62-2.3,24.72-2.14a37,37,0,0,1,16.25,3.62,23.8,23.8,0,0,1,3.86,2.42A14.48,14.48,0,0,1,235.79,110.31Z" style="fill:#263238"></path><path d="M198,150.89a3.91,3.91,0,0,1,.26-.56c.19-.36.45-.9.83-1.57a46.63,46.63,0,0,1,3.61-5.52,33.64,33.64,0,0,1,7.08-6.93,32.58,32.58,0,0,1,5.13-3,41.22,41.22,0,0,1,6.05-2.21l-.17.34a12.13,12.13,0,0,1-.68-5.15,16.09,16.09,0,0,1,.8-3.68,18.57,18.57,0,0,1,1.58-3.3,19.49,19.49,0,0,1,4.55-5.13,28.65,28.65,0,0,1,10.5-4.8,62.35,62.35,0,0,1,7.67-1.37c.91-.11,1.62-.18,2.11-.23a3.35,3.35,0,0,1,.73,0,5.39,5.39,0,0,1-.72.14l-2.09.32a74.86,74.86,0,0,0-7.61,1.52,28.84,28.84,0,0,0-10.29,4.83,19.38,19.38,0,0,0-4.42,5,17.42,17.42,0,0,0-1.52,3.2,15.6,15.6,0,0,0-.77,3.55,11.94,11.94,0,0,0,.64,4.94l.1.26-.27.07a41,41,0,0,0-6,2.16,32.46,32.46,0,0,0-5.07,2.91,34.26,34.26,0,0,0-7.08,6.77,54.39,54.39,0,0,0-3.72,5.4c-.37.63-.68,1.13-.91,1.52A2.59,2.59,0,0,1,198,150.89Z" style="fill:#263238"></path><path d="M241.91,126.09a28.62,28.62,0,0,1-3.21.45,65.42,65.42,0,0,0-7.64,1.43,70.52,70.52,0,0,0-7.43,2.32,28.22,28.22,0,0,1-3,1.12,2.8,2.8,0,0,1,.75-.45c.49-.27,1.23-.61,2.15-1a50.69,50.69,0,0,1,7.43-2.49,49.4,49.4,0,0,1,7.73-1.29c1-.08,1.81-.12,2.37-.12A3.14,3.14,0,0,1,241.91,126.09Z" style="fill:#263238"></path><path d="M196.06,193.91c-.09,0,.18-1.43.37-3.73a40,40,0,0,0-2.52-17.67c-.82-2.16-1.47-3.44-1.39-3.48a4.25,4.25,0,0,1,.54.86,25.82,25.82,0,0,1,1.2,2.48,35.27,35.27,0,0,1,2.54,17.85,23,23,0,0,1-.46,2.72A3.67,3.67,0,0,1,196.06,193.91Z" style="fill:#263238"></path><path d="M293.94,107.75s-.24,0-.72,0l-2.13-.11c-.94,0-2.1-.05-3.46,0a21.86,21.86,0,0,0-4.65.67,26.76,26.76,0,0,0-5.46,2.15c-1,.49-1.93,1-2.94,1.64-.5.3-1,.6-1.53.93s-1,.68-1.46,1.09a14.76,14.76,0,0,0-4.21,6.65,24.79,24.79,0,0,0-1.09,8.84v.14l-.13.06a18.43,18.43,0,0,0-7.75,5.67,20.09,20.09,0,0,0-4.08,9.69l0,.1-.07.06c-3.33,2.68-7.5,4.29-11.52,6.33a30.54,30.54,0,0,0-5.77,3.7,27.15,27.15,0,0,0-4.77,5.19,46,46,0,0,0-6.24,13.3c-1.5,4.81-2.45,9.89-3.56,15a98.74,98.74,0,0,1-3.13,11.8,41.22,41.22,0,0,1-5.32,10.61c-2.27,3.15-5.34,5.86-9,6.9s-7.45.71-11,.32a42.45,42.45,0,0,0-10.32-.43,18.3,18.3,0,0,0-4.73,1.34,10.33,10.33,0,0,1-4.79,1,4.82,4.82,0,0,1-2.26-.9,5.47,5.47,0,0,1-1.54-1.82,9.9,9.9,0,0,1-1-4.44,13.45,13.45,0,0,1,.15-2.21c.15-.71.29-1.42.43-2.11s.39-1.36.57-2a17.78,17.78,0,0,1,.68-1.94,52.75,52.75,0,0,1,3.33-6.95c1.17-2.13,2.36-4.09,3.43-5.94a62.15,62.15,0,0,0,4.86-9.82c.23-.71.49-1.37.66-2l.45-1.82c.21-1.13.32-2.11.42-2.89s0-1.38,0-1.8,0-.62,0-.62,0,.21,0,.62v1.81c-.09.78-.18,1.77-.38,2.91-.14.57-.28,1.18-.43,1.83s-.42,1.32-.64,2a60.39,60.39,0,0,1-4.8,9.89c-1.06,1.86-2.23,3.83-3.39,6a52.17,52.17,0,0,0-3.27,6.92,18.16,18.16,0,0,0-.67,1.92c-.18.66-.43,1.32-.55,2l-.42,2.09a12.69,12.69,0,0,0-.13,2.14,9.45,9.45,0,0,0,1,4.25,4.56,4.56,0,0,0,3.48,2.49,9.94,9.94,0,0,0,4.58-1,19.22,19.22,0,0,1,4.83-1.38A43.23,43.23,0,0,1,194,218c3.51.39,7.22.73,10.76-.32s6.53-3.63,8.77-6.72a41.14,41.14,0,0,0,5.24-10.48,98.61,98.61,0,0,0,3.11-11.74c1.11-5.11,2.06-10.2,3.57-15.06a46.58,46.58,0,0,1,6.33-13.43,27.53,27.53,0,0,1,4.87-5.28,30.77,30.77,0,0,1,5.86-3.75c4.06-2.05,8.19-3.64,11.46-6.26l-.09.16a20.11,20.11,0,0,1,1.49-5.34,19.52,19.52,0,0,1,2.72-4.57,18.82,18.82,0,0,1,7.94-5.78l-.13.2a25.06,25.06,0,0,1,1.15-9,15,15,0,0,1,4.33-6.77c.48-.43,1-.75,1.51-1.12s1-.62,1.54-.92c1-.59,2-1.14,3-1.63a26.89,26.89,0,0,1,5.53-2.13,22.61,22.61,0,0,1,4.69-.62c1.37,0,2.54,0,3.47.05C293,107.62,293.94,107.75,293.94,107.75Z" style="fill:#263238"></path><path d="M150.3,212a48,48,0,0,0,2.86-4.6,25.85,25.85,0,0,0-.62-25,45.79,45.79,0,0,0-3.09-4.45,6.69,6.69,0,0,1,1,1,22.33,22.33,0,0,1,2.36,3.23,25.2,25.2,0,0,1,.64,25.31,22.26,22.26,0,0,1-2.21,3.34A6.53,6.53,0,0,1,150.3,212Z" style="fill:#263238"></path><path d="M172.56,219.2a3.87,3.87,0,0,1-.54.6l-.69.71-1,.9a28.6,28.6,0,0,1-7.26,4.51,34.48,34.48,0,0,1-12.36,2.81,40.28,40.28,0,0,1-15.31-2.47,54.05,54.05,0,0,1-13.64-7.43c-3.82-2.82-7.15-5.78-8.76-9.12a10.32,10.32,0,0,1-.55-8.39,7.3,7.3,0,0,1,1.21-2c.17-.2.34-.33.43-.43l.16-.13a8.93,8.93,0,0,0-1.61,2.63,10.23,10.23,0,0,0,.69,8.16c1.6,3.22,4.89,6.11,8.71,8.9a55,55,0,0,0,13.54,7.32,40.29,40.29,0,0,0,15.11,2.48,34.64,34.64,0,0,0,12.23-2.67,30.11,30.11,0,0,0,7.28-4.33l1-.85.72-.67A5.5,5.5,0,0,1,172.56,219.2Z" style="fill:#263238"></path><path d="M165.71,101.46a3.89,3.89,0,0,1,1-.19l2.8-.34c2.35-.29,5.61-.72,9.18-1.32s6.78-1.27,9.11-1.77l2.75-.59a3.5,3.5,0,0,1,1-.16,4.11,4.11,0,0,1-1,.36c-.64.19-1.57.45-2.72.75-2.3.59-5.52,1.31-9.11,1.92s-6.85,1-9.23,1.17c-1.18.1-2.14.16-2.81.18A4.18,4.18,0,0,1,165.71,101.46Z" style="fill:#263238"></path><path d="M247.55,103.29a5.7,5.7,0,0,1-1.25-.17l-3.37-.63c-2.84-.52-6.78-1.19-11.15-1.76s-8.35-.92-11.24-1.14l-3.41-.25a7,7,0,0,1-1.25-.15,5.16,5.16,0,0,1,1.26-.06c.81,0,2,0,3.43.09,2.89.13,6.89.43,11.28,1s8.32,1.3,11.16,1.91c1.41.31,2.55.58,3.34.79A6.65,6.65,0,0,1,247.55,103.29Z" style="fill:#263238"></path><path d="M307.58,168.43l-.21.47-.66,1.38c-.61,1.23-1.48,3-2.59,5.27-2.28,4.57-5.52,11.19-9.64,19.33a38,38,0,0,1-3.85,6.07,18.19,18.19,0,0,1-6,5,18.67,18.67,0,0,1-16.71-.28,21.89,21.89,0,0,1-10.88-15,27.13,27.13,0,0,1,4-19.61,45.18,45.18,0,0,1,9.86-10.56c3.67-3,7.43-5.63,11.17-8.09s7.48-4.66,11.17-6.64,7.54-3.57,11.47-3.53l-.22.24a21.63,21.63,0,0,1,1.57-10.15,11.41,11.41,0,0,1,2.89-3.84,12.08,12.08,0,0,1,4-2.2,20.46,20.46,0,0,1,8.09-.79,50.65,50.65,0,0,1,6.8,1.2,52.59,52.59,0,0,0,9.48,1.65,23.16,23.16,0,0,0,2.53,0c.57,0,.86,0,.86,0a15.18,15.18,0,0,1-3.4.19,50.67,50.67,0,0,1-9.52-1.54,50.14,50.14,0,0,0-6.77-1.14,20.34,20.34,0,0,0-8,.82,11.76,11.76,0,0,0-3.83,2.15,11,11,0,0,0-2.77,3.72,21.22,21.22,0,0,0-1.5,9.95v.24h-.23c-3.81,0-7.61,1.54-11.25,3.5s-7.39,4.19-11.11,6.64-7.48,5.12-11.13,8.07a44.69,44.69,0,0,0-9.74,10.44,26.65,26.65,0,0,0-3.93,19.23,21.43,21.43,0,0,0,10.61,14.67,18.23,18.23,0,0,0,16.29.31,17.85,17.85,0,0,0,5.86-4.85,38.18,38.18,0,0,0,3.83-6c4.12-8.11,7.46-14.68,9.79-19.25l2.67-5.23.71-1.35C307.48,168.58,307.58,168.43,307.58,168.43Z" style="fill:#263238"></path><path d="M336.64,189.38s-.09.15-.27.42l-.82,1.19c-.38.52-.79,1.19-1.27,2l-.78,1.28c-.26.47-.53,1-.83,1.5-2.38,4.22-5.11,10.68-8.62,18.61-.91,2-1.84,4-3,6.12a26.86,26.86,0,0,1-4.21,6.1c-.5.41-1,.86-1.52,1.24s-1.08.73-1.65,1.08c-1.11.7-2.28,1.37-3.47,2-2.39,1.3-4.94,2.48-7.58,3.6-5.3,2.22-11,4.08-17,5.94S273.45,244,267,245.55a296.67,296.67,0,0,1-36.74,6.37c-5.7.65-11.13,1-16.22,1.34s-9.85.37-14.17.49a30.1,30.1,0,0,0-11.36,2.15,14.78,14.78,0,0,0-6.56,5.59,10.76,10.76,0,0,0-1.24,2.93,16.75,16.75,0,0,0-.35,2.33,6.32,6.32,0,0,1-.32,1.42,2.29,2.29,0,0,1-.22.44s.07-.15.17-.46a6.86,6.86,0,0,0,.26-1.42,18.29,18.29,0,0,1,.31-2.34,10.54,10.54,0,0,1,1.21-3,14.93,14.93,0,0,1,6.62-5.75,29.93,29.93,0,0,1,11.46-2.26c4.34-.14,9.08-.24,14.16-.55s10.51-.72,16.2-1.39a301.73,301.73,0,0,0,36.67-6.4c6.42-1.53,12.65-3.21,18.61-5s11.67-3.7,16.94-5.89c2.64-1.11,5.17-2.28,7.55-3.57,1.19-.64,2.35-1.3,3.45-2,.57-.34,1.1-.71,1.64-1.06s1-.8,1.47-1.19a27,27,0,0,0,4.16-6c1.15-2.06,2.09-4.12,3-6.08,3.55-7.9,6.34-14.35,8.79-18.56A42.51,42.51,0,0,1,336.64,189.38Z" style="fill:#263238"></path><path d="M146.3,257.39a3.46,3.46,0,0,1-.21-.83c-.11-.54-.25-1.34-.37-2.35a36.76,36.76,0,0,1-.08-8.27v0a15.07,15.07,0,0,1,1.32-5.59,21.51,21.51,0,0,1,8.06-9,24.11,24.11,0,0,1,3.24-1.75,7.82,7.82,0,0,1,1.27-.47c.05.11-1.77.78-4.31,2.53a22.28,22.28,0,0,0-7.79,8.91,15,15,0,0,0-1.3,5.4h0v0a42.66,42.66,0,0,0-.1,8.16C146.18,256.2,146.37,257.37,146.3,257.39Z" style="fill:#263238"></path><path d="M268.45,206.62a4,4,0,0,1-.66.17l-1.91.38a66.62,66.62,0,0,0-6.9,1.88,91.25,91.25,0,0,0-9.82,4A72.83,72.83,0,0,1,237,217.82a39.19,39.19,0,0,1-6.69,1.06c-2.18.2-4.29.26-6.29.31-4,.07-7.62,0-10.64-.18s-5.47-.32-7.16-.47l-1.94-.19a2.83,2.83,0,0,1-.67-.11,3.88,3.88,0,0,1,.68,0l1.94.1c1.69.08,4.14.2,7.16.3s6.63.17,10.62.07c2-.06,4.09-.13,6.25-.34a37.85,37.85,0,0,0,6.61-1.06,74.81,74.81,0,0,0,12.06-4.7,83.7,83.7,0,0,1,9.91-3.91,57,57,0,0,1,7-1.73l1.93-.29A2.87,2.87,0,0,1,268.45,206.62Z" style="fill:#263238"></path><path d="M412,211.87a.91.91,0,0,1-.09-.26c-.06-.21-.14-.47-.24-.79-.2-.73-.49-1.75-.86-3a94.11,94.11,0,0,0-3.83-11,41.67,41.67,0,0,0-9.44-14.2,23.82,23.82,0,0,0-8.47-5.33,12.86,12.86,0,0,0-5.2-.66,9.12,9.12,0,0,0-4.92,2,8.4,8.4,0,0,0-2.22,2.72,6.5,6.5,0,0,0-.68,3.27l-.51.06a10.76,10.76,0,0,0-1.86-4.38,14.41,14.41,0,0,0-3.32-3.25,18.59,18.59,0,0,0-8.17-3.1,42.31,42.31,0,0,0-8-.25l-6.93.42a35.5,35.5,0,0,1-9.94-.66,14.75,14.75,0,0,1-3.42-1.18.7.7,0,0,1,.23.06l.65.23a23.23,23.23,0,0,0,2.58.71,37.17,37.17,0,0,0,9.89.49l6.92-.47a40.61,40.61,0,0,1,8,.2,18.93,18.93,0,0,1,8.39,3.14,14.85,14.85,0,0,1,3.45,3.36,11.39,11.39,0,0,1,2,4.6l-.51.06a7,7,0,0,1,.73-3.54,8.74,8.74,0,0,1,2.35-2.89,9.57,9.57,0,0,1,5.2-2.13,13.28,13.28,0,0,1,5.41.69,24,24,0,0,1,8.64,5.46,41.47,41.47,0,0,1,9.44,14.4A85.82,85.82,0,0,1,411,207.72c.36,1.33.62,2.37.78,3.07.07.33.13.59.18.8A.87.87,0,0,1,412,211.87Z" style="fill:#263238"></path><path d="M389.58,187.34a1.64,1.64,0,0,1,.38.1c.25.08.64.18,1.11.37a14.69,14.69,0,0,1,3.85,2.31c3.05,2.42,6.42,7.41,7.64,14.34a65.77,65.77,0,0,1,.72,11.38,105.85,105.85,0,0,0,.43,13c.55,4.56,1.63,9.26,2.72,14.15a85.46,85.46,0,0,1,2.38,15.34,37.72,37.72,0,0,1,0,4,23.2,23.2,0,0,1-.47,3.91,12,12,0,0,1-1.4,3.66,8,8,0,0,1-2.71,2.76,11.19,11.19,0,0,1-7.28,1.3,19.93,19.93,0,0,1-6.75-2.26c-2.06-1.05-4-2.24-5.89-3.25a27.2,27.2,0,0,0-5.81-2.39,22.66,22.66,0,0,1-5.57-2.1,7.51,7.51,0,0,1-3.34-4.34,13.21,13.21,0,0,1-.47-5,20.89,20.89,0,0,1,4-10.71,19.87,19.87,0,0,1,3.05-3.3,11.88,11.88,0,0,1,1.23-.95l-.29.27c-.2.17-.51.41-.87.76a20.31,20.31,0,0,0-2.95,3.34,21.44,21.44,0,0,0-3.09,6.31,20.12,20.12,0,0,0-.79,4.31,12.88,12.88,0,0,0,.49,4.84,7.14,7.14,0,0,0,3.2,4.1,21.88,21.88,0,0,0,5.48,2,28.54,28.54,0,0,1,5.91,2.4c1.93,1,3.85,2.2,5.89,3.23a19.13,19.13,0,0,0,6.59,2.19,10.74,10.74,0,0,0,6.95-1.23,9,9,0,0,0,3.87-6.1,21.1,21.1,0,0,0,.46-3.83,36.75,36.75,0,0,0,0-3.93,86.21,86.21,0,0,0-2.35-15.25,140.45,140.45,0,0,1-2.7-14.2,104.88,104.88,0,0,1-.39-13.08,66.2,66.2,0,0,0-.65-11.32c-1.16-6.85-4.44-11.81-7.41-14.25A16.11,16.11,0,0,0,389.58,187.34Z" style="fill:#263238"></path><path d="M399.17,257.74a21.53,21.53,0,0,0-14.31-6.89,7.51,7.51,0,0,1,2.42,0,17.65,17.65,0,0,1,5.62,1.62,17.19,17.19,0,0,1,4.77,3.39A7.13,7.13,0,0,1,399.17,257.74Z" style="fill:#263238"></path><path d="M354.32,195.73a16,16,0,0,0-1.08,3.62,13.55,13.55,0,0,0,.12,4.4,12.38,12.38,0,0,0,2.39,5.27,11.94,11.94,0,0,0,5.75,3.89,12.25,12.25,0,0,0,7.93-.09c2.7-1,5-3,7.73-4.66a12.88,12.88,0,0,1,4.58-1.69,6.71,6.71,0,0,1,4.9,1.1,9.11,9.11,0,0,1,2.94,4.08,28.12,28.12,0,0,1,1.33,4.66c.68,3.09,1.26,6.08,1.75,8.94,1,5.72,1.62,10.91,2,15.28s.57,7.91.65,10.36c.05,1.23.06,2.18.06,2.83v.73a.67.67,0,0,1,0,.25.79.79,0,0,1,0-.25c0-.19,0-.43-.05-.73,0-.69-.09-1.63-.16-2.82-.14-2.44-.37-6-.81-10.34s-1.12-9.53-2.12-15.23c-.5-2.85-1.09-5.83-1.78-8.9a26.79,26.79,0,0,0-1.31-4.58,8.56,8.56,0,0,0-2.77-3.85,6.1,6.1,0,0,0-4.52-1,12.35,12.35,0,0,0-4.39,1.61c-2.68,1.57-5,3.68-7.83,4.67a12.65,12.65,0,0,1-8.22,0,12.21,12.21,0,0,1-5.91-4.08,12.6,12.6,0,0,1-2.39-5.43,13.26,13.26,0,0,1,0-4.49,12.38,12.38,0,0,1,.82-2.71c.14-.3.26-.51.33-.66A2.2,2.2,0,0,1,354.32,195.73Z" style="fill:#263238"></path><path d="M418.36,306s-.08.05-.25.11l-.77.27a17.92,17.92,0,0,1-3.06.76,23.28,23.28,0,0,1-11.45-1.17,24.1,24.1,0,0,1-7-3.95,22.28,22.28,0,0,1-5.71-7.2,16.29,16.29,0,0,0-2.62-4.09,8,8,0,0,0-4.43-2.16,22.6,22.6,0,0,0-5.28-.16l-5.5.36a54.11,54.11,0,0,1-10.9-.21,24.88,24.88,0,0,1-9.6-3.29A16,16,0,0,1,344,270.66a15.23,15.23,0,0,1,1.76-6.36,16.3,16.3,0,0,1,3-4,14.65,14.65,0,0,1,2.48-1.94,8,8,0,0,1,.71-.4c.17-.09.25-.13.26-.12s-.32.21-.91.61a16,16,0,0,0-2.4,2,16.37,16.37,0,0,0-2.87,4,15.21,15.21,0,0,0-1.65,6.25,15.62,15.62,0,0,0,7.72,14.13,24.58,24.58,0,0,0,9.42,3.2,54.47,54.47,0,0,0,10.79.19l5.5-.36a22.64,22.64,0,0,1,5.4.18,8.46,8.46,0,0,1,4.69,2.31,16.58,16.58,0,0,1,2.7,4.22,21.89,21.89,0,0,0,5.55,7.08,24,24,0,0,0,6.82,3.95,23.71,23.71,0,0,0,11.29,1.31,20,20,0,0,0,3.05-.66l.79-.22Z" style="fill:#263238"></path><path d="M414.32,291.34c-.09,0-.54-1.16-1.49-3a33,33,0,0,0-4.54-6.55,32.52,32.52,0,0,0-6-5.24c-1.7-1.14-2.83-1.73-2.79-1.81a3.42,3.42,0,0,1,.84.33,18.67,18.67,0,0,1,2.15,1.17,28.71,28.71,0,0,1,6.19,5.2,28.18,28.18,0,0,1,4.48,6.73,21.22,21.22,0,0,1,.93,2.27A3.22,3.22,0,0,1,414.32,291.34Z" style="fill:#263238"></path><path d="M344.17,269.57a2.18,2.18,0,0,1-.55-.31l-1.52-1-1.08-.71c-.41-.25-.86-.5-1.34-.77-1-.54-2-1.22-3.3-1.81l-2-1c-.68-.33-1.42-.61-2.17-.94-1.5-.68-3.16-1.22-4.89-1.84a64.48,64.48,0,0,0-23.61-3.16c-1.83.14-3.58.23-5.2.49-.81.12-1.6.19-2.35.34l-2.14.42c-1.38.23-2.58.6-3.66.87-.53.14-1,.26-1.49.39l-1.24.4-1.71.54a4.11,4.11,0,0,1-.61.16,2.3,2.3,0,0,1,.57-.26l1.69-.63,1.22-.45c.46-.15,1-.28,1.49-.43A37.64,37.64,0,0,1,294,259l2.15-.46c.75-.15,1.55-.24,2.36-.37,1.63-.28,3.39-.39,5.24-.54a63.15,63.15,0,0,1,23.78,3.18c1.74.64,3.41,1.2,4.91,1.9.75.34,1.49.63,2.17,1l2,1c1.26.61,2.32,1.31,3.28,1.88.47.29.92.55,1.32.81l1.06.75,1.47,1.06A3.14,3.14,0,0,1,344.17,269.57Z" style="fill:#263238"></path><path d="M312.25,257.84a14.54,14.54,0,0,1-3.95-4.34,14.84,14.84,0,0,1-2.41-5.36c.15-.06,1.08,2.4,2.84,5.07S312.36,257.72,312.25,257.84Z" style="fill:#263238"></path><path d="M181.08,299.23s.12-.12.36-.32l1.11-.88c1-.77,2.45-1.9,4.3-3.34l6.83-5.26,4.26-3.29a28.66,28.66,0,0,1,5.21-3.09,43,43,0,0,1,13.41-3.4,146.23,146.23,0,0,1,15.88-.4c2.8,0,5.66,0,8.57-.17s5.87-.55,8.87-1c6-.91,12.21-2.18,18.71-2.33a116.54,116.54,0,0,1,18.78,1.63c6,.85,11.84,1.73,17.3,3a64.27,64.27,0,0,1,15,5.23c.55.29,1.11.57,1.63.88l1.56,1c1,.68,2,1.39,2.86,2.08l5.37,3.91c1.71,1.24,3.32,2.45,4.83,3.61a48.5,48.5,0,0,1,4.14,3.46,54.65,54.65,0,0,0,6.41,5.72,24.22,24.22,0,0,0,4.77,2.57c.57.24,1,.39,1.31.51l.45.18a3.93,3.93,0,0,1-.46-.13c-.31-.11-.76-.24-1.34-.47a22.2,22.2,0,0,1-4.85-2.5,53.09,53.09,0,0,1-6.49-5.67c-1.23-1.14-2.62-2.26-4.14-3.41s-3.13-2.34-4.85-3.58l-5.39-3.87c-.93-.71-1.86-1.39-2.85-2.06l-1.54-.94c-.52-.31-1.08-.58-1.62-.87a64.12,64.12,0,0,0-14.91-5.14c-5.44-1.25-11.25-2.12-17.27-3a116.17,116.17,0,0,0-18.7-1.6c-6.43.14-12.63,1.4-18.64,2.3-3,.47-6,.83-8.92,1s-5.8.18-8.6.16a148.27,148.27,0,0,0-15.84.35,43,43,0,0,0-13.3,3.31,28.34,28.34,0,0,0-5.16,3c-1.5,1.16-2.95,2.23-4.28,3.25L187,294.85l-4.36,3.27c-.49.36-.87.63-1.14.84Z" style="fill:#263238"></path><path d="M97.36,236.74C66.08,227.5,65.07,218,65,213.43c-5.3,15.2,3.21,30.61,23.44,44.44s57.78,19.74,57.78,19.74,0,.14.11.42c0-4.86,0-15.18.34-16.19C147.11,260.52,136.11,248.19,97.36,236.74Z" style="opacity:0.30000000000000004"></path><path d="M189.87,278.73a1.66,1.66,0,0,1-.11.5,6.65,6.65,0,0,1-.59,1.33,11.08,11.08,0,0,1-3.8,3.71A22.15,22.15,0,0,1,182.1,286a17.25,17.25,0,0,1-1.91.75,18.7,18.7,0,0,1-2.08.65,31.58,31.58,0,0,1-9.59,1.07,32.38,32.38,0,0,1-16.59-5.19,28.3,28.3,0,0,1-4.16-3.31l-1-1a2.52,2.52,0,0,1-.32-.39,2.45,2.45,0,0,1,.4.31l1.06,1a33,33,0,0,0,20.64,8.13,31.71,31.71,0,0,0,9.45-1,16.29,16.29,0,0,0,2-.62,15.09,15.09,0,0,0,1.89-.71,22.37,22.37,0,0,0,3.25-1.59,11.43,11.43,0,0,0,3.82-3.51A14.57,14.57,0,0,0,189.87,278.73Z" style="fill:#263238"></path><g style="opacity:0.30000000000000004"><path d="M196.6,111.12c-10.21,5.59-14.53,13.68-14.87,16.55-.38,3.15,1.74,6,4.05,8.2s5,4.07,6.46,6.9c2,3.94,1,8.68-.16,12.94s-2.92,9-6.56,11.79c-4.05,3.1-9.56,3.23-14.67,3.38-13,.4-26.78,2.12-37.15,10-4.28,3.27-7.83,7.48-12.37,10.37-9.89,6.31-27.59-4.43-29.7-1.9,0,0,14.34,12.54,28.1,7.91,13-4.37,16.59-18.2,37.21-21.62,19.47-3.23,29.59-.91,35.29-8.12s7.49-17.51,4.08-23-10.77-7.06-10-14.21C187.86,115.64,196.6,111.12,196.6,111.12Z"></path></g><g style="opacity:0.30000000000000004"><path d="M114.57,211.09a44.43,44.43,0,0,0,38.56,17.46c4-.33,8-1.25,11.31-3.52s5.7-6.09,5.49-10.08c-6.77,8.19-18.25,11.63-30,9-6.87-1.51-16-6.25-25.37-12.9"></path></g><g style="opacity:0.30000000000000004"><path d="M192.52,169c3.38,6.6,6.13,18.31,3.13,24.39l1,.28C199.92,188.05,200.34,174.76,192.52,169Z"></path></g><g style="opacity:0.30000000000000004"><path d="M293.81,188.05c-1.85,4.32-3.58,8.89-6.89,12.12a16.27,16.27,0,0,1-13.9,4.25,20.31,20.31,0,0,1-12.56-7.88c-2.13-1.83-3.16-5.16-3.66-9.19A21.43,21.43,0,0,0,265.24,204c5.06,3.79,11.18,4.22,17.23,2.66a12.93,12.93,0,0,0,8-5.74,62.86,62.86,0,0,0,4.76-7.81c1.2-2.62,2.46-5.6,3.92-8.43,3.25-6.28,6.45-12.34,9.23-18.74C303.59,173,297.22,180.13,293.81,188.05Z"></path></g><g style="opacity:0.30000000000000004"><path d="M392.48,270.44c-4.29-2-8.16-4.89-12.65-6.4-2-.69-4.23-1.1-5.95-2.4a9.42,9.42,0,0,1-3.32-7.54,28,28,0,0,1,1.69-8.34l-.2.07c-2.09,3.09-2.65,6.37-2.83,10.1a9.35,9.35,0,0,0,1.23,5.7c2,3.06,6.21,3.58,9.7,4.75a56.9,56.9,0,0,1,8.46,4.11,25.53,25.53,0,0,0,8.78,3.24,10.53,10.53,0,0,0,8.73-2.58C402,273.46,396.77,272.44,392.48,270.44Z"></path></g><g style="opacity:0.30000000000000004"><path d="M346.28,263.66c-3.31,4.62-2.47,13,1.24,17.35s9.47,6.83,15.13,7.4a104.22,104.22,0,0,0,18.18-.38,10.06,10.06,0,0,1,6,1.68,15.71,15.71,0,0,1,4.47,5.89c2.63,5.63,7.48,9,15.15,11.15-5.15-2.33-11.91-11.45-14.49-16.48-.86-1.68-1.59-3.54-3.07-4.71a9.37,9.37,0,0,0-5.6-1.56c-5.52-.18-11,.81-16.53.74s-11.37-1.42-15.19-5.4-5.86-7.76-5-14.5"></path></g><g style="opacity:0.30000000000000004"><path d="M280.42,134.78a3.31,3.31,0,0,0-1.4-.33,12.8,12.8,0,0,1-11.33-11.38c-.05-.45-.23-1-.68-1s-.51.41-.56.74a22.18,22.18,0,0,0-.14,6.85h-.26a15,15,0,0,0,13.69,6.87,1.38,1.38,0,0,0,1.13-.51A1,1,0,0,0,280.42,134.78Z"></path></g><path d="M202.75,215.17c11-3.72,13.5-11.36,15.32-23.08s13.73-31.49,13.18-30.64-4.7,6.8-12,38.56c-2.17,9.39-7.8,18.51-18.24,18.53s-14.49-.91-14.49-.91Z" style="opacity:0.30000000000000004"></path><path d="M135.72,164.73a6.63,6.63,0,0,1-1.27-2,14.86,14.86,0,0,1-.55-11.24,6.37,6.37,0,0,1,1.08-2.12c.08,0-.32.85-.73,2.23a17.17,17.17,0,0,0-.66,5.54,16.84,16.84,0,0,0,1.2,5.45C135.32,163.91,135.8,164.68,135.72,164.73Z" style="fill:#263238"></path><path d="M152.45,142.1c0,.09-.92-.09-2.39-.16a18.64,18.64,0,0,0-5.67.63,19,19,0,0,0-5.2,2.33c-1.23.8-1.92,1.42-2,1.35A7.13,7.13,0,0,1,139,144.6a16.29,16.29,0,0,1,11.11-3A7.21,7.21,0,0,1,152.45,142.1Z" style="fill:#263238"></path><g style="opacity:0.2"><path d="M116.48,153.34a1.8,1.8,0,0,0-1.91-2.43A35.36,35.36,0,0,0,91.78,163.3c-2.35,2.82-4.33,6.25-4.68,9.83a1.82,1.82,0,0,0,2.54,1.81c8.41-3.59,15.49-9.86,22.34-16C113.76,157.34,115.65,155.49,116.48,153.34Z" style="fill:#fff"></path></g><g style="opacity:0.2"><path d="M147.71,143.82A14,14,0,0,0,135.9,155a4.44,4.44,0,0,0,.18,2.7,2,2,0,0,0,2.23,1.17c1.14-.36,1.41-1.8,1.67-3a11.66,11.66,0,0,1,5.71-7.58,7,7,0,0,0,2.51-1.7c.61-.82.53-2.25-.42-2.62" style="fill:#fff"></path></g><g style="opacity:0.2"><path d="M146.31,127.75a2.65,2.65,0,0,0-2.31-1.92,6.19,6.19,0,0,0-2.34.2h0a5.47,5.47,0,0,0-3.81,3,11.64,11.64,0,0,0-1.18,4.75,5.7,5.7,0,0,0,.21,2.5,2.24,2.24,0,0,0,1.83,1.51,2.37,2.37,0,0,0,1.91-1,10.82,10.82,0,0,0,1.06-2,12.09,12.09,0,0,1,2.38-3.29,15.3,15.3,0,0,0,1.6-1.62A2.79,2.79,0,0,0,146.31,127.75Z" style="fill:#fff"></path></g><g style="opacity:0.2"><path d="M120.94,204.31a25.49,25.49,0,0,0,25.33-7.69c1-1.17,2-2.86,1.18-4.21s-2.7-1.33-4.12-.79c-3.19,1.2-5.38,4.22-8.5,5.59-4.33,1.92-10,.48-13.57,3.58a2.47,2.47,0,0,0-.93,1.44,1.13,1.13,0,0,0,.88,1.3" style="fill:#fff"></path></g><g style="opacity:0.2"><path d="M182.61,202.28a4.11,4.11,0,0,0-1.53-3,2.77,2.77,0,0,0-2.74.11,6,6,0,0,0-2,2,14.42,14.42,0,0,0-1.88,10.89l.21.69c2.47,1.27,5.68-.25,7.07-2.66S183.09,205,182.61,202.28Z" style="fill:#fff"></path></g><g style="opacity:0.2"><path d="M235,134.77c-2.72-1.12-7-.29-7.64-.19h0a30.7,30.7,0,0,0-23,22.86,3.55,3.55,0,0,0,.27,2.92c.83,1,2.57.86,3.59,0a9,9,0,0,0,2-3.41,30,30,0,0,1,20.88-17,8,8,0,0,0,3.92-1.51C236.11,137.44,236.34,135.32,235,134.77Z" style="fill:#fff"></path></g><g style="opacity:0.2"><path d="M240.41,113.86a1.64,1.64,0,0,0-2.29-.55l0-.5a15.43,15.43,0,0,0-9.74,5.24,4.82,4.82,0,0,0-1.18,2.08,2.08,2.08,0,0,0,.72,2.16,3,3,0,0,0,2.61.06,25.6,25.6,0,0,0,8-4,6.29,6.29,0,0,0,1.84-1.9A2.59,2.59,0,0,0,240.41,113.86Z" style="fill:#fff"></path></g><g style="opacity:0.2"><path d="M298.17,114.15c-.15-.78-.27-1.73-1.13-2a16.38,16.38,0,0,0-9.7.07h.06a22.3,22.3,0,0,0-11.66,6.08c-1.44,1.44-2.75,3.46-2.1,5.38a4.19,4.19,0,0,0,3.68,2.56,10.41,10.41,0,0,0,4.6-1,73.12,73.12,0,0,0,14.52-8.18C297.47,116.42,298.4,115.37,298.17,114.15Z" style="fill:#fff"></path></g><g style="opacity:0.2"><path d="M247.73,157.8a1,1,0,0,0-1-.84h0a.58.58,0,0,0-.26.06c-6.24,1.46-11.64,6.74-12.49,13.09a1.68,1.68,0,0,0,.24,1.36,1.18,1.18,0,0,0,1.32.18,3.41,3.41,0,0,0,1.1-.9l10.19-11.07A2.59,2.59,0,0,0,247.73,157.8Z" style="fill:#fff"></path></g><g style="opacity:0.2"><path d="M275.41,171.39c-.58-2.34-3.09-4.36-5.35-3.53-3.26,1.76-5,5.55-7.07,8.63a14.13,14.13,0,0,0-2.31,10.57,10.28,10.28,0,0,0,7.09,7.83c2,.51,4.35.16,5.45-1.54,1.47-2.29-.24-5.22-.5-7.93-.23-2.4.74-4.73,1.6-7S276,173.74,275.41,171.39Z" style="fill:#fff"></path></g><g style="opacity:0.2"><path d="M333.09,133.27a30,30,0,0,0-15.33-1,10.49,10.49,0,0,0-5.84,2.78l0,0a3.48,3.48,0,0,0,2.38,5.72,86.15,86.15,0,0,0,17.44-.38,7.14,7.14,0,0,0,4.15-1.49,2.86,2.86,0,0,0,.93-1.69C337.09,135.16,335,133.9,333.09,133.27Z" style="fill:#fff"></path></g><g style="opacity:0.2"><path d="M173.81,234.23a3.36,3.36,0,0,0-2.41-.89,22.12,22.12,0,0,0-7.72.83c-4.15.78-7.31,4.21-8.75,7.71s-1.58,7.36-1.7,11.14a9.61,9.61,0,0,0,.39,3.82,3.31,3.31,0,0,0,2.86,2.25,3.45,3.45,0,0,0,2.92-2.37,16.45,16.45,0,0,0,.71-3.91,17.69,17.69,0,0,1,10-13.47,10.35,10.35,0,0,0,3.2-1.79A2.56,2.56,0,0,0,173.81,234.23Z" style="fill:#fff"></path></g><g style="opacity:0.30000000000000004"><path d="M218.86,101.77c-5-.64-10-.14-15,.37l-35.22,3.58c-11.23,1.14-22.82,2.41-32.66,7.9a386.77,386.77,0,0,1,53.23-8c7.24-.65,14.45-1.92,21.72-1.87s14.64,1.18,21.26,4.21C228.79,104.31,223.83,102.41,218.86,101.77Z"></path></g><g style="opacity:0.30000000000000004"><path d="M135.65,113.81l.36-.19-.36,0Z"></path></g><g style="opacity:0.30000000000000004"><path d="M137.76,145.47c-14.77-4.86-32.08-1.42-43.29,9.35L92.16,158A41.93,41.93,0,0,1,122,147.48s8.58.35,12.6,2.58Z"></path></g><g style="opacity:0.30000000000000004"><path d="M145,142.15a52.38,52.38,0,0,1,16.57.58,9.65,9.65,0,0,0,3.07.29,3.15,3.15,0,0,0,2.51-1.58A27.15,27.15,0,0,0,145,142.15Z"></path></g><g style="opacity:0.30000000000000004"><path d="M219.91,131.21a39.12,39.12,0,0,1,27.53-6.49c.56.08,1.25.32,1.25.88s-.86.84-1.51.83a73.79,73.79,0,0,0-27.87,5"></path></g><g style="opacity:0.30000000000000004"><path d="M262.35,207.64c-5.37,2.09-11.27,2.45-16.94,3.53a16.47,16.47,0,0,0,.18-5.95q-.36-3.54-.71-7.08c-.14-1.38-.47-3-1.75-3.54a2.59,2.59,0,0,0-3.07,1.49,6.42,6.42,0,0,0-.24,3.69c.45,2.79,1.37,5.54,1.32,8.37a9.1,9.1,0,0,1-1.21,4.42c-.73.24-1.45.5-2.16.8-3.29,1.42-6.29,3.52-9.7,4.64-3.8,1.26-7.86,1.23-11.88,1h12.68C240.83,217.69,251.62,213.06,262.35,207.64Z"></path></g><g style="opacity:0.30000000000000004"><path d="M216.19,219l-2.34-.17Z"></path></g><g style="opacity:0.30000000000000004"><path d="M351.44,226.73a2.88,2.88,0,0,0-2.67-2,12.38,12.38,0,0,0-3.5.49,13.14,13.14,0,0,1-10-1.73c-1.78-1.22-3.72-4.41-4.75-7.47.73-4.67.35-9.86,0-16.48,0,0-9.14,22-14,27-6.6,6.81-34.88,14.82-34.88,14.82-10.21,4.54-35.07,7.82-46.32,9.67s-25.63,1.25-40.07,2.85-15.68,13.32-15.68,13.32c4.18-4.16,9.91-6.46,15.71-7.54s11.73-1.07,17.62-1.2a308.74,308.74,0,0,0,78.83-11.82c11.06-3.19,22.32-7.3,30.44-15.45.28-.28.54-.55.8-.83a22.29,22.29,0,0,1,8.78-1.77c4.81-.06,9.56,1,14.35,1.33a7.38,7.38,0,0,0,3.59-.36A2.73,2.73,0,0,0,351.44,226.73Z"></path></g><g style="opacity:0.30000000000000004"><path d="M393.83,215.09a26.43,26.43,0,0,0-2.8-7,8.9,8.9,0,0,0-6-4.26,5.88,5.88,0,0,0-4.87,1.63,44.69,44.69,0,0,1-10,4.6c-4.18,1.15-8.92,1-12.51-1.38s-5.33-8.79-3.27-12.59L353,198.73c-.93,3.7,1.09,9.24,3.75,12s8.11,3.71,11.84,2.88,4.24-3,7.61-4.8a24.07,24.07,0,0,1,5.3-2.06,7.71,7.71,0,0,1,6.17,2.13c2.21,2.34,2.7,4.53,3.2,7.7,1.87,11.73,3.76,25.47,4.51,37.32C400.08,241.42,397.54,227.88,393.83,215.09Z"></path></g><g style="opacity:0.30000000000000004"><path d="M223.54,278.38c-7.18-.4-14.7-1.23-21.27,1.7-5.23,2.34-9.17,6.78-13.44,10.6s-9.56,7.26-15.27,6.83c-1.15-.08-2.72,0-2.93,1.09s1.05,1.69,2.08,1.87a12.45,12.45,0,0,0,8.72-1.63c6.44-4.76,18.5-13.83,21.81-15.62,13.36-7.23,35.38-.34,52.86-6.41A158.36,158.36,0,0,1,223.54,278.38Z"></path></g><g style="opacity:0.30000000000000004"><path d="M189.77,276.16c-2,2.88-4.15,5.85-7.22,7.58-4.4,2.47-9.8,1.92-14.81,1.29-4.3-.54-8.66-1.09-12.66-2.78s-6.84-2.83-8.75-4.22l.11.47c4.87,4.6,10.13,8,16.75,9.07s13.3.81,19.36-2a15.53,15.53,0,0,0,5.16-3.58A7.64,7.64,0,0,0,189.77,276.16Z"></path></g><g style="opacity:0.30000000000000004"><path d="M386.61,174.45a14.41,14.41,0,0,0-10.87,3.08c-3.11-4.26-8.76-5.88-14-6s-10.51,1-15.78.9-10.92-1.65-14.1-5.86c-.78-1-2.08-2.33-3.07-1.51-.76.63-.36,1.85.19,2.67a13.08,13.08,0,0,0,7.66,5.32c7.63,2.92,17.65-.54,23.89.48s12.43,4.56,14.94,10.37c.64-4.06,5-6.7,9.07-6.87s8,1.55,11.79,3.22A14.43,14.43,0,0,0,386.61,174.45Z"></path></g><g style="opacity:0.30000000000000004"><path d="M325.28,145.84c2,2.28,5.61,2,8.65,1.71a92.64,92.64,0,0,1,39.94,4.83l.24-.27A127,127,0,0,0,325.28,145.84Z"></path></g><g style="opacity:0.2"><path d="M210.44,227.53a3.19,3.19,0,0,0-2.64.78c-.59.75.12,2.06,1.89,2.06a167.44,167.44,0,0,0,18.87-.65,25.54,25.54,0,0,0,7.56-1.52,10.69,10.69,0,0,0,4.37-3.18.86.86,0,0,0-.88-1.37A103.45,103.45,0,0,1,210.44,227.53Z" style="fill:#fff"></path></g><g style="opacity:0.2"><path d="M368.58,180.85c-1-2.13-3.28-3.36-5.53-4a14.62,14.62,0,0,0-6.43-.4l-.42.06-.25,0H356a8.71,8.71,0,0,0-4.33,2.07,1.3,1.3,0,0,0-.58,1.06c.1.7,1,.81,1.74.8a15.65,15.65,0,0,1,9.24,2.8,15.72,15.72,0,0,0,2.83,1.83,3.17,3.17,0,0,0,3.21-.26C369.24,183.9,369.18,182.15,368.58,180.85Z" style="fill:#fff"></path></g><g style="opacity:0.2"><path d="M350.81,237.1c-2.1-1.86-5.07-2.31-7.86-2.47a32.8,32.8,0,0,0-13,1.54c-4.12,1.48-7.31,2.52-7.31,7.06-.06,2,2.16,3.51,4.2,3.56s4-.86,5.91-1.48a20.88,20.88,0,0,1,10.41-.53c2.82.57,6.12,1.62,8.28-.28S352.91,239,350.81,237.1Z" style="fill:#fff"></path></g><g style="opacity:0.2"><path d="M236.54,289.93c-.25-1.38-1.58-1.85-2.77-2.16a47.49,47.49,0,0,0-15.11-1.41,26.27,26.27,0,0,0-11.25,3.5l-26.58,15.2c-2.16,1.24-4.6,2.9-4.35,5.54a4.16,4.16,0,0,0,1.37,2.62,8,8,0,0,0,5.66,1.74c5.38-.06,10.48-2.44,15-5.38s8.62-6.46,13.22-9.25a48.83,48.83,0,0,1,19.59-6.7c1.58-.18,3.25-.32,4.45-1.49A2.51,2.51,0,0,0,236.54,289.93Z" style="fill:#fff"></path></g><g style="opacity:0.2"><path d="M259.36,284.39a9.65,9.65,0,0,0-4.59-.93,5.52,5.52,0,0,0-3.72,1.49,2.76,2.76,0,0,0-1.22,1.56c-.29,1.34,1.09,2.43,2.36,2.93a12.36,12.36,0,0,0,5.14.81c1.44-.08,3.05-.57,3.66-1.88S260.72,285.18,259.36,284.39Z" style="fill:#fff"></path></g><g style="opacity:0.30000000000000004"><path d="M324.93,289.17a128.16,128.16,0,0,1,19.81,12.05c4,3,7.79,6.52,12.57,7.93,2.69.79,5.54.85,8.31,1.25s5.64,1.22,7.64,3.19a4.37,4.37,0,0,1,1.5,3.36,2.29,2.29,0,0,1-2.59,2.12c-1.46-.38-1.79-2.24-2.5-3.58a6.91,6.91,0,0,0-4-3.05,30,30,0,0,0-5.08-1,37,37,0,0,1-12.46-4.28c-5.33-3-6.91-5.64-11.48-9.46,0,0-5.09-4-6.84-4.8A28,28,0,0,1,324.93,289.17Z"></path></g><path d="M373.08,319.13s-.21.09-.63.1a2.22,2.22,0,0,1-.76-.09,1.66,1.66,0,0,1-.85-.62,16.46,16.46,0,0,1-1.11-2.3,5,5,0,0,0-1.79-2.3,14.09,14.09,0,0,0-5.1-2,22.52,22.52,0,0,1-2.28-.46,7,7,0,0,1,2.34.1,12.4,12.4,0,0,1,5.34,1.93,5.26,5.26,0,0,1,1.93,2.52,21.05,21.05,0,0,0,1,2.29,1.64,1.64,0,0,0,1.32.72C372.85,319.08,373.08,319.08,373.08,319.13Z" style="fill:#263238"></path><path d="M144.31,257.87a5.28,5.28,0,0,1-.68-.53c-.44-.36-1-.94-1.89-1.59a57.18,57.18,0,0,0-7.5-5.08A84.84,84.84,0,0,0,122,245.05c-4.75-1.78-10.08-3.43-15.69-5.1s-11-3.29-15.76-5a89.38,89.38,0,0,1-12.36-5.44,55.92,55.92,0,0,1-7.66-4.93c-.87-.64-1.47-1.22-1.91-1.57a4.75,4.75,0,0,1-.64-.59,6,6,0,0,1,.7.51c.46.33,1.09.88,2,1.49a63.64,63.64,0,0,0,7.71,4.77,94.61,94.61,0,0,0,12.36,5.31c4.77,1.71,10.12,3.3,15.74,5s11,3.34,15.71,5.15a82.41,82.41,0,0,1,12.22,5.75,50.58,50.58,0,0,1,7.45,5.25c.84.67,1.41,1.28,1.84,1.66A5.6,5.6,0,0,1,144.31,257.87Z" style="fill:#263238"></path><path d="M342.51,382.83a3.42,3.42,0,0,1-.71-.08c-.47-.07-1.17-.14-2.05-.34a45.2,45.2,0,0,1-7.32-2.12,56.16,56.16,0,0,1-10.11-5.08,74.49,74.49,0,0,1-10.93-8.5,134.4,134.4,0,0,1-16.31-19.11c-1.89-2.6-3.37-4.74-4.39-6.22l-1.16-1.71a5.09,5.09,0,0,1-.38-.62,3.12,3.12,0,0,1,.47.56l1.23,1.65,4.53,6.12a144.29,144.29,0,0,0,16.36,18.95,76.14,76.14,0,0,0,10.84,8.47,58.58,58.58,0,0,0,10,5.15,49.76,49.76,0,0,0,7.23,2.26c.87.23,1.56.33,2,.44A3.11,3.11,0,0,1,342.51,382.83Z" style="fill:#263238"></path><path d="M363.18,375.43a3.47,3.47,0,0,1-.76-.15l-2.14-.53c-.94-.23-2.07-.53-3.37-.95s-2.8-.82-4.41-1.41-3.4-1.19-5.27-2-3.85-1.62-5.92-2.54a129.59,129.59,0,0,1-13-7,131,131,0,0,1-12.06-8.52c-1.75-1.45-3.43-2.8-4.92-4.18s-2.87-2.63-4.1-3.83-2.29-2.34-3.23-3.32-1.73-1.86-2.35-2.59l-1.43-1.68a4.74,4.74,0,0,1-.48-.61,3.49,3.49,0,0,1,.56.54l1.5,1.61c.65.71,1.44,1.57,2.41,2.53s2,2.1,3.28,3.25,2.6,2.47,4.13,3.78,3.17,2.69,4.93,4.12a139.42,139.42,0,0,0,12,8.46,141.38,141.38,0,0,0,12.94,7c2.06.93,4,1.84,5.89,2.57s3.61,1.43,5.22,2,3.08,1,4.37,1.48,2.42.77,3.34,1l2.12.63A4.69,4.69,0,0,1,363.18,375.43Z" style="fill:#263238"></path><path d="M364.65,357.82a3.27,3.27,0,0,1-.54-.15l-1.51-.51c-1.31-.45-3.19-1.14-5.51-2-4.63-1.76-11-4.34-17.86-7.44s-13-6.16-17.41-8.46c-2.19-1.15-4-2.1-5.16-2.79l-1.39-.79a1.72,1.72,0,0,1-.46-.31,2.68,2.68,0,0,1,.51.22l1.43.71,5.24,2.63c4.42,2.22,10.57,5.21,17.45,8.31s13.2,5.73,17.79,7.57l5.44,2.18,1.47.6A2.53,2.53,0,0,1,364.65,357.82Z" style="fill:#263238"></path><path d="M370.25,345.49c-.06.13-10.17-4.65-22.58-10.69s-22.43-11-22.36-11.16,10.17,4.65,22.58,10.69S370.31,345.37,370.25,345.49Z" style="fill:#263238"></path><path d="M318.5,387.21a3.75,3.75,0,0,1-1.06,0,27.14,27.14,0,0,1-2.87-.37,41.26,41.26,0,0,1-17.42-7.45c-1-.73-1.74-1.36-2.24-1.82a4.53,4.53,0,0,1-.75-.75c.06-.07,1.21.9,3.21,2.27a48.5,48.5,0,0,0,8.26,4.57,49.22,49.22,0,0,0,9,2.82C317,387,318.51,387.12,318.5,387.21Z" style="fill:#263238"></path><g style="opacity:0.30000000000000004"><path d="M286.81,325a16.49,16.49,0,0,0-4.46,10.39h.75l.8-1.18a30.37,30.37,0,0,1,13-14.23A16.46,16.46,0,0,0,286.81,325Z"></path></g><g style="opacity:0.30000000000000004"><path d="M291.53,362c4.41,13.45,21.41,22.94,35.38,25.18A148.86,148.86,0,0,1,291.53,362Z"></path></g><g style="opacity:0.2"><path d="M325.94,267.13a5.74,5.74,0,0,0-2.2-.89c-7.67-1.9-15.43-3.82-23.33-4a12.23,12.23,0,0,0-4.26.48,4.93,4.93,0,0,0-3.11,2.77l1.1.73.29-.08,28.88,4.11c1.27.19,2.95.15,3.39-1.06A1.94,1.94,0,0,0,325.94,267.13Z" style="fill:#fff"></path></g><path d="M151.79,249.15a7.71,7.71,0,0,1,.33-2.38,18.35,18.35,0,0,1,6.17-9.67,7.6,7.6,0,0,1,2-1.3,23,23,0,0,0-8.53,13.35Z" style="fill:#fff"></path><path d="M225.78,223.12a53.93,53.93,0,0,1-7.56.26,54,54,0,0,1-7.56-.26,55.94,55.94,0,0,1,7.56-.26A55.82,55.82,0,0,1,225.78,223.12Z" style="fill:#fff"></path><path d="M257.7,214.3a37.1,37.1,0,0,1-6,1.93,38,38,0,0,1-6.16,1.43,39.22,39.22,0,0,1,6-1.93A38.54,38.54,0,0,1,257.7,214.3Z" style="fill:#fff"></path><path d="M259.81,189.52a3.09,3.09,0,0,1-.08-1,20.35,20.35,0,0,1,.14-2.66,27.84,27.84,0,0,1,7.29-15.78,20.43,20.43,0,0,1,1.94-1.83,3.6,3.6,0,0,1,.79-.58c.06.07-1,1-2.45,2.66a30.75,30.75,0,0,0-7.2,15.58C259.91,188.13,259.9,189.52,259.81,189.52Z" style="fill:#fff"></path><path d="M279.12,159.7a15.94,15.94,0,0,1-5,2.94,16.78,16.78,0,0,1,5-2.94Z" style="fill:#fff"></path><path d="M320.69,129.62c0,.1-.84,0-2.1.28a9,9,0,0,0-2.12.78,10.16,10.16,0,0,0-2.23,1.62,10.6,10.6,0,0,0-1.66,2.2,9.11,9.11,0,0,0-.81,2.11c-.29,1.26-.21,2.09-.31,2.09s-.08-.2-.12-.57a3,3,0,0,1,0-.69,5.16,5.16,0,0,1,.09-.9,7.76,7.76,0,0,1,.75-2.26,9.6,9.6,0,0,1,1.72-2.35,9.74,9.74,0,0,1,2.37-1.68,8.13,8.13,0,0,1,2.27-.71,6.23,6.23,0,0,1,.91-.08,2.91,2.91,0,0,1,.69,0C320.49,129.54,320.69,129.59,320.69,129.62Z" style="fill:#fff"></path><path d="M339.59,150a49.25,49.25,0,0,1-10.07,1.3,25.15,25.15,0,0,1,5-.91A24.2,24.2,0,0,1,339.59,150Z" style="fill:#fff"></path><path d="M345.48,178.6a14.22,14.22,0,0,1-3.82-.37,14.5,14.5,0,0,1-3.74-.89,14.77,14.77,0,0,1,3.83.37A14.35,14.35,0,0,1,345.48,178.6Z" style="fill:#fff"></path><path d="M339.18,231.14c0,.09-1.26.11-3.27.38a33.48,33.48,0,0,0-14.65,5.62c-1.67,1.14-2.63,2-2.69,1.9a3.34,3.34,0,0,1,.61-.65,20.91,20.91,0,0,1,1.87-1.55,29.51,29.51,0,0,1,14.82-5.69,23,23,0,0,1,2.42-.09A2.86,2.86,0,0,1,339.18,231.14Z" style="fill:#fff"></path><path d="M350.49,268.9a8.15,8.15,0,0,1,1.24-4.8,8.26,8.26,0,0,1,3.43-3.57,24.61,24.61,0,0,0-3,3.83A24.21,24.21,0,0,0,350.49,268.9Z" style="fill:#fff"></path><path d="M297.21,260.16a5.11,5.11,0,0,1-1.11.42c-.73.24-1.79.55-3.1.92-2.62.74-6.27,1.66-10.35,2.51s-7.79,1.46-10.49,1.83c-1.35.19-2.44.32-3.2.4a5.92,5.92,0,0,1-1.19.06,5.07,5.07,0,0,1,1.16-.27l3.17-.55c2.69-.46,6.38-1.13,10.45-2s7.72-1.71,10.36-2.36l3.13-.76A6,6,0,0,1,297.21,260.16Z" style="fill:#fff"></path><path d="M220.75,283.52c0,.1-1.48-.09-3.87-.06a33.82,33.82,0,0,0-17.62,5.22c-2,1.27-3.15,2.23-3.21,2.16s.24-.28.75-.73a21.67,21.67,0,0,1,2.26-1.74,30.69,30.69,0,0,1,8.5-4,31,31,0,0,1,9.32-1.27,23.62,23.62,0,0,1,2.85.23A4.6,4.6,0,0,1,220.75,283.52Z" style="fill:#fff"></path><path d="M255.6,281.08a14.86,14.86,0,0,1-4,.47,15.06,15.06,0,0,1-4-.05,30.81,30.81,0,0,1,8-.42Z" style="fill:#fff"></path><path d="M76.29,217.65s-.19-.22-.44-.66a17,17,0,0,1-.9-2,22.43,22.43,0,0,1-.68-14,15.51,15.51,0,0,1,.71-2,2.53,2.53,0,0,1,.36-.7c.08,0-.31,1.08-.71,2.82a25.75,25.75,0,0,0-.62,6.94,26.26,26.26,0,0,0,1.29,6.84C75.87,216.61,76.37,217.61,76.29,217.65Z" style="fill:#fff"></path><path d="M124.15,210.09a3.18,3.18,0,0,1-1.41-.66,9.62,9.62,0,0,1-2.65-2.68,9.36,9.36,0,0,1-1.42-3.49,3.32,3.32,0,0,1-.06-1.55,12.74,12.74,0,0,0,5.54,8.38Z" style="fill:#fff"></path><path d="M99.4,158.52c0,.09-1.29.73-3.19,2.13a26.91,26.91,0,0,0-3.14,2.71,28.9,28.9,0,0,0-3.21,3.92,28.48,28.48,0,0,0-2.41,4.46,27.06,27.06,0,0,0-1.32,3.93c-.57,2.29-.66,3.77-.76,3.76a4.37,4.37,0,0,1,0-1,8.76,8.76,0,0,1,.12-1.21,14.85,14.85,0,0,1,.27-1.6,24.15,24.15,0,0,1,1.23-4A27.83,27.83,0,0,1,89.43,167a26.74,26.74,0,0,1,3.3-4A24.05,24.05,0,0,1,96,160.35c.49-.36,1-.61,1.37-.86a10.74,10.74,0,0,1,1.08-.57A4.27,4.27,0,0,1,99.4,158.52Z" style="fill:#fff"></path><path d="M143.11,145.32a12.34,12.34,0,0,0-2.49,1.37,10,10,0,0,0-3.34,5.79,21.71,21.71,0,0,0,0,6.87,21.58,21.58,0,0,1,.34,2.88,13.54,13.54,0,0,1-.7-2.82,19,19,0,0,1-.17-7,9.75,9.75,0,0,1,3.63-6,6,6,0,0,1,1.93-1A1.84,1.84,0,0,1,143.11,145.32Z" style="fill:#fff"></path><path d="M139.29,136.57c0,.05-.58-.18-1.21-.89a5.81,5.81,0,0,1-.33-6.87c.56-.77,1.09-1,1.11-1s-.36.45-.8,1.21a6.16,6.16,0,0,0,.32,6.44C138.88,136.16,139.34,136.5,139.29,136.57Z" style="fill:#fff"></path><path d="M212.66,141.51c.06.08-1,.88-2.33,2.45a24,24,0,0,0-2.15,2.94,24.42,24.42,0,0,0-2,4,24.93,24.93,0,0,0-1.16,4.3,21.76,21.76,0,0,0-.31,3.63c0,2.08.22,3.36.13,3.37a2.61,2.61,0,0,1-.23-.88,14.54,14.54,0,0,1-.27-2.49,19.88,19.88,0,0,1,.21-3.71,22.79,22.79,0,0,1,1.14-4.41,23.66,23.66,0,0,1,2-4.06,20.23,20.23,0,0,1,2.29-2.93A15.3,15.3,0,0,1,211.9,142,3.22,3.22,0,0,1,212.66,141.51Z" style="fill:#fff"></path><path d="M233.37,116.1a19.09,19.09,0,0,1-1.78.91,14.74,14.74,0,0,0-3.76,2.88,15.08,15.08,0,0,0-2.63,3.93,14.57,14.57,0,0,1-.79,1.84,5.28,5.28,0,0,1,.45-2,12.76,12.76,0,0,1,2.59-4.15,12.56,12.56,0,0,1,4-2.85A5.12,5.12,0,0,1,233.37,116.1Z" style="fill:#fff"></path><path d="M284.6,114.11c0,.1-1,.2-2.44.79a11.48,11.48,0,0,0-2.41,1.32,13.79,13.79,0,0,0-2.47,2.29,13.57,13.57,0,0,0-1.77,2.85,11.9,11.9,0,0,0-.84,2.62c-.3,1.55-.2,2.55-.3,2.55s-.08-.24-.13-.69a5.29,5.29,0,0,1,0-.82,7.5,7.5,0,0,1,.09-1.1,10.52,10.52,0,0,1,.76-2.75,12.63,12.63,0,0,1,1.81-3,13.45,13.45,0,0,1,2.59-2.36,11,11,0,0,1,2.56-1.27,6.56,6.56,0,0,1,1.06-.29,4.05,4.05,0,0,1,.81-.14C284.35,114.08,284.6,114.07,284.6,114.11Z" style="fill:#fff"></path><path d="M261.11,139.61a13.84,13.84,0,0,0-2.45,3.18,14.16,14.16,0,0,0-1,3.9,2.25,2.25,0,0,1-.19-1.23,6.89,6.89,0,0,1,.71-2.9,7.07,7.07,0,0,1,1.84-2.35C260.63,139.73,261.07,139.55,261.11,139.61Z" style="fill:#fff"></path><path d="M238.38,158.44a18.78,18.78,0,0,1-1.52,2.41c-1,1.47-2.22,3.54-3.44,5.92s-2.15,4.61-2.79,6.25a18.78,18.78,0,0,1-1.07,2.64,12.35,12.35,0,0,1,.72-2.76,46,46,0,0,1,6.28-12.26A12.8,12.8,0,0,1,238.38,158.44Z" style="fill:#fff"></path><path d="M176.91,209.77a4.23,4.23,0,0,1-1-2,8.14,8.14,0,0,1,3.75-9.34,4.22,4.22,0,0,1,2.08-.74c0,.08-.79.32-1.89,1.05a8.38,8.38,0,0,0-3.58,8.93C176.56,209,177,209.73,176.91,209.77Z" style="fill:#fff"></path><path d="M217.39,109.67a13.82,13.82,0,0,1-2.35,0c-1.44-.07-3.44-.12-5.64,0s-4.19.24-5.63.39a14,14,0,0,1-2.34.19,8.3,8.3,0,0,1,2.29-.55,43.14,43.14,0,0,1,11.35-.35A8.84,8.84,0,0,1,217.39,109.67Z" style="fill:#fff"></path></g></svg>
